<svg width="32" height="33" viewBox="0 0 32 33" fill="none" xmlns="http://www.w3.org/2000/svg">
<path d="M5.9787 0.000745281H25.7462C26.4706 -0.0113479 27.1899 0.123843 27.8604 0.398115C28.531 0.672388 29.1388 1.08003 29.6471 1.5963C30.1666 2.09098 30.5784 2.68755 30.8568 3.34868C31.1352 4.00982 31.2741 4.72128 31.2649 5.43857V19.479C31.274 20.1963 31.135 20.9077 30.8566 21.5689C30.5782 22.23 30.1665 22.8266 29.6471 23.3213C29.1388 23.8376 28.531 24.2452 27.8604 24.5195C27.1899 24.7938 26.4706 24.929 25.7462 24.9169H14.826L7.61065 32.1019C7.49837 32.2249 7.34977 32.3089 7.18647 32.3416C7.02317 32.3744 6.85368 32.3541 6.70266 32.2839C6.53791 32.2285 6.39589 32.1205 6.29836 31.9766C6.20084 31.8327 6.15319 31.6607 6.16272 31.4872V24.9209H5.98274C5.26408 24.9308 4.55092 24.7944 3.88658 24.5201C3.22225 24.2458 2.62061 23.8393 2.11823 23.3254C1.59883 22.8306 1.18708 22.234 0.908712 21.5729C0.630348 20.9118 0.491357 20.2004 0.500428 19.4831V5.44262C0.491235 4.72533 0.630171 4.01386 0.908543 3.35273C1.18691 2.6916 1.59873 2.09503 2.11823 1.60034C2.6198 1.08612 3.22062 0.679179 3.88424 0.404208C4.54786 0.129236 5.26042 -0.00802806 5.9787 0.000745281ZM11.3457 19.4143C11.8469 19.417 12.3375 19.2705 12.7552 18.9936C13.1728 18.7166 13.4986 18.3216 13.6912 17.859C13.8837 17.3963 13.9343 16.8868 13.8364 16.3953C13.7385 15.9038 13.4966 15.4525 13.1415 15.0989C12.9087 14.8576 12.6298 14.6658 12.3212 14.5348C12.0127 14.4037 11.681 14.3362 11.3457 14.3362C11.0105 14.3362 10.6788 14.4037 10.3702 14.5348C10.0617 14.6658 9.78275 14.8576 9.54999 15.0989C9.19687 15.4532 8.95676 15.9044 8.86 16.3952C8.76324 16.886 8.81418 17.3945 9.00638 17.8564C9.19858 18.3183 9.52341 18.7128 9.93981 18.9901C10.3562 19.2674 10.8455 19.4151 11.3457 19.4143ZM18.1284 19.7419C18.2883 19.7452 18.4471 19.7145 18.5942 19.6517C18.7413 19.5889 18.8734 19.4956 18.9818 19.3779C19.0937 19.2629 19.1818 19.1269 19.2408 18.9776C19.2998 18.8283 19.3286 18.6688 19.3255 18.5084C19.3456 17.2412 19.1046 15.9834 18.6175 14.8134C18.1305 13.6434 17.4078 12.5861 16.4944 11.7075C15.609 10.8002 14.5478 10.083 13.3756 9.60003C12.2034 9.11705 10.945 8.87838 9.67739 8.89864C9.51942 8.8959 9.36252 8.925 9.21603 8.98419C9.06955 9.04338 8.93648 9.13146 8.82477 9.24318C8.71305 9.3549 8.62497 9.48797 8.56577 9.63445C8.50658 9.78094 8.47748 9.93784 8.48022 10.0958C8.47743 10.2564 8.50656 10.416 8.56592 10.5653C8.62528 10.7145 8.71369 10.8505 8.82603 10.9654C8.93424 11.0824 9.06614 11.175 9.21293 11.2371C9.35973 11.2991 9.51806 11.3292 9.67739 11.3253C10.6262 11.3166 11.567 11.5002 12.4429 11.8651C13.3188 12.2301 14.1116 12.7688 14.7735 13.4487C15.4633 14.0964 16.0114 14.88 16.3832 15.7502C16.7549 16.6203 16.9422 17.5581 16.9332 18.5043C16.9307 18.6663 16.9615 18.8272 17.0238 18.9768C17.086 19.1264 17.1784 19.2615 17.2952 19.3739C17.4022 19.4875 17.5313 19.5781 17.6746 19.64C17.8179 19.7019 17.9723 19.7338 18.1284 19.7338V19.7419ZM22.9535 19.7419C23.2801 19.7403 23.593 19.6099 23.824 19.3789C24.055 19.1479 24.1854 18.835 24.187 18.5084C24.187 14.5434 22.76 11.146 19.9059 8.31623C17.0519 5.48643 13.6423 4.07086 9.67739 4.06951C9.3617 4.06109 9.05554 4.17817 8.82603 4.39509C8.71262 4.50195 8.62317 4.63164 8.56356 4.7756C8.50395 4.91957 8.47555 5.07453 8.48022 5.23028C8.47743 5.3909 8.50656 5.55047 8.56592 5.69974C8.62528 5.84901 8.71369 5.98501 8.82603 6.09985C8.93396 6.21749 9.0657 6.31079 9.2125 6.37355C9.3593 6.43632 9.51778 6.4671 9.67739 6.46385C12.9898 6.46385 15.8311 7.64282 18.2012 10.0008C20.5712 12.3587 21.7563 15.1939 21.7563 18.5063C21.7535 18.667 21.7826 18.8265 21.842 18.9758C21.9013 19.1251 21.9898 19.2611 22.1021 19.3759C22.2099 19.4917 22.3409 19.5834 22.4865 19.6451C22.6322 19.7068 22.7892 19.737 22.9474 19.7338L22.9535 19.7419Z" fill="#0079BC"/>
</svg>
