<svg width="33" height="33" viewBox="0 0 33 33" fill="none" xmlns="http://www.w3.org/2000/svg">
<path d="M32.856 16.1815C32.8567 13.0897 31.9713 10.0624 30.3048 7.4581C28.6383 4.85382 26.2605 2.78162 23.4528 1.48686C20.6451 0.192099 17.5252 -0.270986 14.4625 0.152433C11.3997 0.575852 8.5225 1.86804 6.17142 3.876C3.82033 5.88395 2.09387 8.52358 1.19645 11.4823C0.299042 14.4411 0.268268 17.595 1.10778 20.5707C1.94728 23.5464 3.62191 26.2192 5.93337 28.2726C8.24483 30.3261 11.0963 31.6742 14.1502 32.1573V20.857H10.043V16.1815H14.1502V12.6183C14.1502 8.56169 16.5647 6.32306 20.2614 6.32306C21.4741 6.33989 22.6839 6.44533 23.8812 6.63853V10.6203H21.8428C19.8327 10.6203 19.2139 11.8681 19.2139 13.1461V16.1815H23.7013L22.9834 20.857H19.2058V32.1573C23.0104 31.5554 26.4755 29.6158 28.9777 26.6873C31.4799 23.7587 32.8551 20.0335 32.856 16.1815Z" fill="#1877F2"/>
</svg>
