<svg width="33" height="33" viewBox="0 0 33 33" fill="none" xmlns="http://www.w3.org/2000/svg">
<path d="M27.2539 7.54313C27.2547 7.15859 27.1414 6.78246 26.9284 6.46235C26.7153 6.14223 26.4121 5.89251 26.0571 5.7448C25.702 5.59709 25.3112 5.55803 24.9339 5.63255C24.5567 5.70708 24.21 5.89185 23.9378 6.16348C23.6656 6.4351 23.4801 6.78137 23.4048 7.15846C23.3295 7.53555 23.3678 7.92651 23.5147 8.28185C23.6617 8.63719 23.9108 8.94094 24.2305 9.15466C24.5501 9.36839 24.926 9.48247 25.3106 9.48247C25.8253 9.48247 26.319 9.27827 26.6833 8.91469C27.0477 8.55111 27.2529 8.05785 27.2539 7.54313Z" fill="url(#paint0_linear_1143_4510)"/>
<path d="M29.8449 22.7139C29.772 24.2913 29.5092 25.1406 29.2908 25.719C29.0308 26.4222 28.6161 27.058 28.0774 27.5794C27.5586 28.1194 26.9238 28.5343 26.221 28.7928C25.6507 29.0152 24.7913 29.2781 23.2139 29.355C21.5071 29.4298 21.0036 29.446 16.678 29.446C12.3524 29.446 11.8489 29.4298 10.1421 29.355C8.56473 29.2781 7.71538 29.0152 7.13904 28.7928C6.43502 28.5344 5.79886 28.1195 5.27857 27.5794C4.73831 27.0593 4.32341 26.4231 4.06522 25.719C3.84682 25.1487 3.57988 24.2913 3.51113 22.7139C3.42822 21.0091 3.41204 20.4894 3.41204 16.18C3.41204 11.8706 3.42822 11.3468 3.51113 9.64006C3.57988 8.06271 3.84682 7.21336 4.06522 6.63298C4.32344 5.93005 4.73839 5.29518 5.27857 4.77655C5.80016 4.23802 6.43593 3.82339 7.13904 3.5632C7.70932 3.34076 8.55462 3.07988 10.1421 3.00506C11.8489 2.93024 12.3564 2.91002 16.678 2.91002C20.9995 2.91002 21.5071 2.93024 23.2139 3.00506C24.7913 3.07988 25.6406 3.34076 26.221 3.5632C26.9229 3.82349 27.5573 4.23815 28.0774 4.77655C28.616 5.29649 29.0307 5.93097 29.2908 6.63298C29.5092 7.20729 29.772 8.06271 29.8449 9.64006C29.9237 11.3468 29.9439 11.8544 29.9439 16.18C29.9439 20.5056 29.9237 21.0091 29.8449 22.7139ZM32.7569 9.50457C32.678 7.77959 32.407 6.60264 32.0026 5.57736C31.5997 4.49582 30.9639 3.51615 30.1401 2.70779C29.3309 1.88748 28.3532 1.2527 27.2746 0.847322C26.2452 0.442872 25.0723 0.173913 23.3474 0.0990902C21.6224 0.024267 21.0723 0 16.678 0C12.2836 0 11.7295 0.016178 10.0046 0.0990902C8.66259 0.12445 7.33465 0.377455 6.07736 0.847322C5.00012 1.25498 4.02393 1.89105 3.21588 2.71184C2.39229 3.52113 1.75528 4.50045 1.34934 5.58141C0.948939 6.60669 0.677958 7.78364 0.595046 9.50457C0.512133 11.2255 0.5 11.7836 0.5 16.178C0.5 20.5723 0.5182 21.1204 0.595046 22.8514C0.671891 24.5825 0.948939 25.7452 1.34934 26.7746C1.75539 27.8543 2.39242 28.8323 3.21588 29.6401C4.02332 30.4621 4.99965 31.099 6.07736 31.5066C7.11073 31.9111 8.28364 32.178 10.0046 32.2569C11.7255 32.3358 12.2836 32.356 16.678 32.356C21.0723 32.356 21.6244 32.3378 23.3514 32.2569C25.0784 32.176 26.2493 31.907 27.2786 31.5066C28.3581 31.1001 29.3359 30.4631 30.1441 29.6401C30.9678 28.8332 31.6037 27.8549 32.0066 26.7746C32.4111 25.7452 32.6821 24.5683 32.7609 22.8474C32.8398 21.1264 32.86 20.5723 32.86 16.1739C32.86 11.7756 32.8418 11.2255 32.7609 9.50052L32.7569 9.50457Z" fill="url(#paint1_linear_1143_4510)"/>
<path d="M16.6786 21.5679C15.6123 21.5675 14.5701 21.2509 13.6837 20.6582C12.7973 20.0655 12.1066 19.2232 11.699 18.2379C11.2913 17.2526 11.1849 16.1686 11.3933 15.1228C11.6017 14.0771 12.1156 13.1166 12.8699 12.3629C13.6241 11.6092 14.585 11.0961 15.6308 10.8885C16.6767 10.6809 17.7607 10.788 18.7457 11.1965C19.7307 11.6049 20.5724 12.2962 21.1645 13.183C21.7566 14.0699 22.0724 15.1123 22.072 16.1786C22.072 16.8867 21.9324 17.5878 21.6613 18.242C21.3903 18.8961 20.9929 19.4904 20.4921 19.9909C19.9912 20.4914 19.3966 20.8882 18.7423 21.1588C18.0879 21.4294 17.3867 21.5685 16.6786 21.5679ZM16.6786 7.86719C15.0352 7.86679 13.4285 8.35374 12.0618 9.26645C10.6951 10.1792 9.62977 11.4767 9.00048 12.9949C8.37119 14.5131 8.20623 16.1838 8.52646 17.7957C8.84669 19.4077 9.63772 20.8884 10.7995 22.0508C11.9613 23.2132 13.4417 24.005 15.0535 24.326C16.6653 24.647 18.3361 24.4828 19.8546 23.8543C21.3731 23.2257 22.6711 22.161 23.5845 20.7948C24.4979 19.4285 24.9856 17.8221 24.986 16.1786C24.9863 15.0874 24.7716 14.0068 24.3543 12.9986C23.9369 11.9904 23.3251 11.0742 22.5537 10.3024C21.7823 9.5306 20.8664 8.91831 19.8584 8.50048C18.8503 8.08265 17.7698 7.86745 16.6786 7.86719Z" fill="url(#paint2_linear_1143_4510)"/>
<defs>
<linearGradient id="paint0_linear_1143_4510" x1="0.552686" y1="32.0188" x2="29.923" y2="2.63876" gradientUnits="userSpaceOnUse">
<stop stop-color="#FFD521"/>
<stop offset="0.05" stop-color="#FFD521"/>
<stop offset="0.5" stop-color="#F50000"/>
<stop offset="0.95" stop-color="#B900B4"/>
<stop offset="1" stop-color="#B900B4"/>
</linearGradient>
<linearGradient id="paint1_linear_1143_4510" x1="1.30777" y1="31.5805" x2="30.6781" y2="2.21016" gradientUnits="userSpaceOnUse">
<stop stop-color="#FFD521"/>
<stop offset="0.05" stop-color="#FFD521"/>
<stop offset="0.5" stop-color="#F50000"/>
<stop offset="0.95" stop-color="#B900B4"/>
<stop offset="1" stop-color="#B900B4"/>
</linearGradient>
<linearGradient id="paint2_linear_1143_4510" x1="1.17842" y1="32.6206" x2="30.5785" y2="3.25028" gradientUnits="userSpaceOnUse">
<stop stop-color="#FFD521"/>
<stop offset="0.05" stop-color="#FFD521"/>
<stop offset="0.5" stop-color="#F50000"/>
<stop offset="0.95" stop-color="#B900B4"/>
<stop offset="1" stop-color="#B900B4"/>
</linearGradient>
</defs>
</svg>
