<svg width="39" height="27" viewBox="0 0 39 27" fill="none" xmlns="http://www.w3.org/2000/svg">
<path d="M37.7404 4.21538C37.5237 3.40016 37.0965 2.65622 36.5017 2.05806C35.9069 1.4599 35.1654 1.02853 34.3514 0.80715C31.3551 0 19.3796 0 19.3796 0C19.3796 0 7.40406 0 4.40779 0.80715C3.5938 1.02853 2.85228 1.4599 2.25748 2.05806C1.66268 2.65622 1.2355 3.40016 1.01871 4.21538C0.21875 7.22363 0.21875 13.4988 0.21875 13.4988C0.21875 13.4988 0.21875 19.7764 1.01871 22.7822C1.23535 23.5978 1.66245 24.3421 2.25723 24.9407C2.85202 25.5392 3.59362 25.971 4.40779 26.1929C7.40406 27 19.3796 27 19.3796 27C19.3796 27 31.3551 27 34.3514 26.1929C35.1655 25.971 35.9071 25.5392 36.5019 24.9407C37.0967 24.3421 37.5238 23.5978 37.7404 22.7822C38.5404 19.7764 38.5404 13.4988 38.5404 13.4988C38.5404 13.4988 38.5404 7.22363 37.7404 4.21538Z" fill="#FF0000"/>
<path d="M15.4609 19.1967L25.4749 13.4987L15.4609 7.80078V19.1967Z" fill="white"/>
</svg>
