<svg width="49" height="48" viewBox="0 0 49 48" fill="none" xmlns="http://www.w3.org/2000/svg">
<path d="M24.25 47.65C37.35 47.65 48.05 36.95 48.05 23.9C48.05 10.75 37.35 0.0499974 24.25 0.0499974C11.05 0.0499974 0.45 10.75 0.45 23.9C0.45 36.95 11.05 47.65 24.25 47.65ZM24.25 3.45C35.5 3.45 44.7 12.55 44.7 23.9C44.7 35.15 35.5 44.3 24.25 44.3C12.95 44.3 3.8 35.15 3.8 23.9C3.8 12.55 12.95 3.45 24.25 3.45ZM35.6 15.05C33 13.1 29.3 13.25 27.7 15.65C26.75 16.85 26.5 18.45 26.95 19.9C26 19.65 25.2 19.45 24.2 19.45C23.2 19.45 22.3 19.65 21.45 19.9C21.85 18.45 21.55 16.85 20.7 15.65C19 13.3 15.4 13.05 12.75 15.05C10.1 17.05 9.2 20.6 11 22.9C12.15 24.45 14.05 25.05 16 24.7C15.45 25.9 15.2 27.15 15.2 28.4C15.2 33.4 19.2 37.4 24.2 37.4C29.1 37.4 33.2 33.4 33.2 28.4C33.2 27.15 32.9 25.9 32.35 24.7C34.3 25.05 36.2 24.45 37.35 22.9C39.05 20.55 38.35 17.1 35.6 15.05Z" fill="#273C57"/>
</svg>
