<svg width="47" height="34" viewBox="0 0 47 34" fill="none" xmlns="http://www.w3.org/2000/svg">
<path d="M6.1 10.55C6.1 8.1 10.05 5.15 14.85 5.15C18.7 5.15 21.95 6.35 23.1 8.2C24.35 6.35 27.55 5.15 31.35 5.15C36.25 5.15 40.1 8.1 40.1 10.55L40.2 11.45H40.25C41.5 12.1 42.6 12.65 43.6 13.3V2.4C43.6 1.2 42.6 0.199998 41.45 0.199998H6.1C4.95 0.199998 3.95 1.2 3.95 2.4V12.7C4.6 12.3 5.3 12 6.05 11.65L6.1 10.55ZM46.5 21.15V20.5C46.5 17.55 44.15 14.95 39.6 12.95C35.25 11 29.55 9.95 23.35 9.95C17.15 9.95 11.4 11 7 12.95C2.45 14.95 5.66244e-07 17.55 5.66244e-07 20.5V21.15H46.5ZM5.66244e-07 23.3V32.8C5.66244e-07 33.25 0.400001 33.5 0.95 33.5H6.35V29.9C6.35 29.5 6.55 29.3 6.95 29.3H39.55C39.9 29.3 40.1 29.5 40.1 29.9V33.5H45.55C46.1 33.5 46.5 33.25 46.5 32.8V23.3H5.66244e-07Z" fill="#A7BDD7"/>
</svg>
