<svg width="36" height="50" viewBox="0 0 36 50" fill="none" xmlns="http://www.w3.org/2000/svg">
<path d="M24.35 3.95C23.8 4 23.1 3.6 22.75 3.2L21 0.949999C20.65 0.549998 20.3 0.599997 20.1 1.05L19.35 3.9C19.2 4.35 18.7 5 18.1 5.2L15.45 6.15C14.85 6.3 14.9 6.65 15.3 7L17.75 8.55C18.15 8.9 18.55 9.6 18.6 10.15L18.7 13.05C18.7 13.6 19 13.8 19.45 13.45L21.7 11.65C22.1 11.2 22.9 11.1 23.45 11.25L26.25 12.15C26.7 12.3 27.05 11.9 26.8 11.45L25.8 8.75C25.65 8.3 25.65 7.4 26.05 7L27.7 4.65C28.05 4.1 27.9 3.8 27.25 3.8L24.35 3.95ZM13.2 12.15C12.75 12.05 12.4 11.8 12.25 11.4L11.55 9.55C11.35 9.2 11.15 9.15 10.95 9.5L9.95 11.2C9.75 11.55 9.35 11.8 8.95 11.8L7 11.95C6.55 12 6.45 12.2 6.75 12.5L8.05 13.95C8.35 14.3 8.45 14.7 8.3 15.15L7.85 17C7.7 17.4 7.95 17.55 8.3 17.4L10.1 16.65C10.55 16.5 10.95 16.5 11.3 16.7L12.95 17.75C13.3 17.95 13.5 17.85 13.45 17.45L13.25 15.5C13.25 15.05 13.4 14.65 13.7 14.4L15.2 13.15C15.55 12.95 15.45 12.7 15.05 12.55L13.2 12.15ZM22.3 21.9L21.3 21C20.7 20.4 20.3 19.45 20.5 18.65L20.7 17.4L19.55 18C19.15 18.2 18.7 18.3 18.25 18.3C17.8 18.3 17.4 18.2 17.05 18.05L15.85 17.45L16.1 18.75C16.3 19.6 16 20.55 15.45 21.15L14.5 22.05L15.8 22.2C16.65 22.35 17.45 22.85 17.85 23.65L18.5 24.8L19 23.65C19.4 22.85 20.15 22.3 21 22.15L22.3 21.9ZM23.55 20.3L24.55 21.2C24.75 21.35 24.8 21.5 24.85 21.7C27.65 22.3 29.45 23.15 29.45 24.3C29.45 25.5 27.45 26.4 24.45 27C22.8 27.35 21 27.5 19 27.5C18.75 27.6 18.55 27.65 18.5 27.65C18.3 27.65 18.25 27.55 18.05 27.55C15.8 27.5 13.8 27.3 12.05 27C9.05 26.4 7.05 25.5 7.05 24.3C7.05 23.15 9 22.15 12.2 21.55L12.25 21.5L13.45 20.25C6 20.9 0.550001 22.8 0.550001 25.2C0.550001 26.8 3.05 28.2 7.05 29.15L7.45 29.25L7 32.15C7.2 32.15 7.35 32.15 7.5 32.2C13.45 34.6 22.95 34.6 29 32.2C29.15 32.15 29.4 32.15 29.7 32.15L29.1 29.2C29.25 29.2 29.35 29.2 29.45 29.15C33.45 28.2 35.95 26.8 35.95 25.2C35.95 22.85 30.7 20.95 23.55 20.3ZM29.85 34.4C26.5 35.8 22.5 36.45 18.25 36.45C14 36.45 10.05 35.8 6.6 34.4L5.25 43.7V44C5.25 46 11.05 49.05 18.25 49.05C25.45 49.05 31.55 46.05 31.55 44C31.55 43.95 31.85 43.8 31.85 43.75V43.65L30.05 34.25C30 34.35 29.9 34.4 29.85 34.4Z" fill="#A7BDD7"/>
</svg>
